# xmcd CD database file
#
# Track frame offsets:
#	150
#	18188
#	26787
#	45403
#	60875
#	74109
#	95015
#	114700
#	133956
#	149553
#	173319
#	194359
#	218591
#	235166
#	245121
#	264065
#	279386
#	303895
#
# Disc length: 4346 seconds
#
# Revision: 0
# Processed by: cddbd v1.5.2PL0 Copyright (c) Steve Scherf et al.
# Submitted via: CDex 1.70beta3
#
DISCID=0010f812
DTITLE=akiko - BEST 2005-2010
DYEAR=2010
DGENRE=Jazz
TTITLE0=Whatt's Jazz?
TTITLE1=It Don't Mean a Thing(If It Ain't Got That Swing)
TTITLE2=Batucada
TTITLE3=Perfect
TTITLE4=I Want You to Be My Baby
TTITLE5=I Miss You
TTITLE6=Ladies Love Mercedes
TTITLE7=Love Theme from 'Spartacus'
TTITLE8=a lottle bruise(Arto e eu)
TTITLE9=Video Killed the Radio Star
TTITLE10=Real
TTITLE11=Music Elevation
TTITLE12=You May Dream
TTITLE13=12月25日の朝。
TTITLE14=All of My World
TTITLE15=Girl Talk
TTITLE16=The Reason of My Tears
TTITLE17=Time
EXTD=YEAR: 2010
EXTT0=
EXTT1=
EXTT2=
EXTT3=
EXTT4=
EXTT5=
EXTT6=
EXTT7=
EXTT8=
EXTT9=
EXTT10=
EXTT11=
EXTT12=
EXTT13=
EXTT14=
EXTT15=
EXTT16=
EXTT17=
PLAYORDER=
